<svg width="256" height="256" viewBox="0 0 256 256" fill="none" xmlns="http://www.w3.org/2000/svg">
  <rect width="256" height="256" rx="64" fill="url(#bg)" />
  <path d="M179.92 73.2C154.94 74.86 137.48 91.34 129.54 110.26C125.88 95.98 116.6 83.38 101.16 74.68C95.86 71.7 89.24 73.56 86.25 78.87C83.26 84.18 85.13 90.79 90.43 93.78C111.57 105.68 118.82 124.79 120.84 145.82H95.53C89.46 145.82 84.53 150.75 84.53 156.82C84.53 162.89 89.46 167.82 95.53 167.82H121.25V184.89C121.25 190.96 126.18 195.89 132.25 195.89C138.33 195.89 143.25 190.96 143.25 184.89V167.82H164.46C170.53 167.82 175.46 162.89 175.46 156.82C175.46 150.75 170.53 145.82 164.46 145.82H143.02C146.4 118.97 159.98 100.09 181.39 95.53C187.33 94.27 191.12 88.43 189.85 82.49C188.59 76.55 182.75 71.95 176.81 73.21L179.92 73.2Z" fill="#F7F2E8" />
  <path d="M155.59 62C165.75 58.26 177.18 59.07 186.7 64.22C177.28 74.38 163.76 80.13 149.91 80.02C147.93 72.65 149.87 64.99 155.59 62Z" fill="#A6D7A5" />
  <defs>
    <linearGradient id="bg" x1="31" y1="22" x2="228" y2="236" gradientUnits="userSpaceOnUse">
      <stop stop-color="#2E6B4A" />
      <stop offset="1" stop-color="#173825" />
    </linearGradient>
  </defs>
</svg>
